<?xml version="1.0" standalone="no"?>
<!DOCTYPE svg PUBLIC "-//W3C//DTD SVG 20010904//EN"
 "http://www.w3.org/TR/2001/REC-SVG-20010904/DTD/svg10.dtd">
<svg version="1.0" xmlns="http://www.w3.org/2000/svg"
 width="500.000000pt" height="500.000000pt" viewBox="0 0 500.000000 500.000000"
 preserveAspectRatio="xMidYMid meet">

<g transform="translate(0.000000,500.000000) scale(0.100000,-0.100000)"
fill="#ffffff" stroke="none">
<path d="M381 4564 c-169 -45 -301 -180 -346 -351 -23 -87 -22 -2540 0 -2628
47 -178 197 -321 374 -355 33 -6 288 -10 655 -10 l601 0 400 -400 c372 -372
403 -400 435 -400 32 0 63 28 435 400 l400 400 601 0 c358 0 623 4 655 10 183
34 344 195 379 379 14 74 14 2508 0 2582 -25 131 -124 266 -239 328 -123 65
34 61 -2236 60 -1766 0 -2068 -2 -2114 -15z m2219 -624 l0 -160 -95 0 -95 0 0
160 0 160 95 0 95 0 0 -160z m578 -542 l-3 -93 -672 -3 -673 -2 0 95 0 95 675
0 676 0 -3 -92z m0 -495 l3 -93 -676 0 -675 0 0 88 c0 49 3 92 7 95 3 4 306 6
672 5 l666 -3 3 -92z m2 -488 l0 -95 -675 0 -675 0 0 95 0 95 675 0 675 0 0
-95z m-580 -560 l0 -165 -95 0 -95 0 0 165 0 165 95 0 95 0 0 -165z"/>
</g>
</svg>
